<svg xmlns="http://www.w3.org/2000/svg" version="1.1" xmlns:xlink="http://www.w3.org/1999/xlink" width="512" height="512" x="0" y="0" viewBox="0 0 24 24" style="enable-background:new 0 0 512 512" xml:space="preserve" class=""><g><path d="M8 11H4a3 3 0 0 1-3-3V4a3 3 0 0 1 3-3h4a3 3 0 0 1 3 3v4a3 3 0 0 1-3 3zM4 3a1 1 0 0 0-1 1v4a1 1 0 0 0 1 1h4a1 1 0 0 0 1-1V4a1 1 0 0 0-1-1zm16 8h-4a3 3 0 0 1-3-3V4a3 3 0 0 1 3-3h4a3 3 0 0 1 3 3v4a3 3 0 0 1-3 3zm-4-8a1 1 0 0 0-1 1v4a1 1 0 0 0 1 1h4a1 1 0 0 0 1-1V4a1 1 0 0 0-1-1zM8 23H4a3 3 0 0 1-3-3v-4a3 3 0 0 1 3-3h4a3 3 0 0 1 3 3v4a3 3 0 0 1-3 3zm-4-8a1 1 0 0 0-1 1v4a1 1 0 0 0 1 1h4a1 1 0 0 0 1-1v-4a1 1 0 0 0-1-1zm16 8h-4a3 3 0 0 1-3-3v-4a3 3 0 0 1 3-3h4a3 3 0 0 1 3 3v4a3 3 0 0 1-3 3zm-4-8a1 1 0 0 0-1 1v4a1 1 0 0 0 1 1h4a1 1 0 0 0 1-1v-4a1 1 0 0 0-1-1z" data-name="11 Menu, Bullet List, List Menu" fill="#c6c6c6" opacity="1" data-original="#000000" class=""></path></g></svg>