<svg xmlns="http://www.w3.org/2000/svg" xmlns:xlink="http://www.w3.org/1999/xlink" width="1080" zoomAndPan="magnify" viewBox="0 0 810 809.999993" height="1080" preserveAspectRatio="xMidYMid meet" version="1.0"><defs><clipPath id="a1f5825dcd"><path d="M 319.078125 166 L 794.171875 166 L 794.171875 251 L 319.078125 251 Z M 319.078125 166 " clip-rule="nonzero"/></clipPath><clipPath id="6d420fb621"><path d="M 354.863281 179.550781 C 510.863281 178.273438 581.8125 173.101562 619.835938 170.550781 C 641.738281 169.125 655.3125 167.398438 671.511719 166.726562 C 685.914062 166.125 698.960938 166.050781 712.386719 166.425781 C 725.363281 166.726562 741.335938 167.550781 750.710938 168.675781 C 756.1875 169.273438 759.5625 169.875 763.6875 171 C 767.585938 172.050781 771.488281 173.101562 774.9375 174.976562 C 778.386719 176.851562 781.6875 179.476562 784.386719 182.324219 C 787.011719 185.25 789.335938 188.699219 790.914062 192.300781 C 792.5625 195.898438 793.613281 199.949219 793.988281 203.925781 C 794.363281 207.824219 794.0625 212.023438 793.164062 215.851562 C 792.261719 219.675781 790.613281 223.574219 788.585938 226.875 C 786.488281 230.25 783.710938 233.398438 780.710938 235.875 C 777.636719 238.425781 774.039062 240.523438 770.363281 241.949219 C 766.6875 243.300781 762.5625 244.199219 758.664062 244.351562 C 754.6875 244.5 750.5625 243.976562 746.738281 242.851562 C 742.988281 241.726562 739.164062 239.925781 735.9375 237.675781 C 732.710938 235.425781 729.710938 232.5 727.386719 229.351562 C 725.0625 226.125 723.1875 222.449219 721.988281 218.699219 C 720.789062 214.949219 720.113281 210.75 720.1875 206.851562 C 720.261719 202.875 721.011719 198.75 722.289062 195.074219 C 723.636719 191.324219 725.585938 187.648438 728.0625 184.574219 C 730.460938 181.5 733.539062 178.648438 736.835938 176.476562 C 740.136719 174.300781 743.960938 172.574219 747.789062 171.601562 C 751.613281 170.625 755.738281 170.25 759.710938 170.476562 C 763.613281 170.773438 767.738281 171.75 771.335938 173.25 C 775.011719 174.75 778.539062 176.925781 781.539062 179.550781 C 784.460938 182.101562 787.164062 185.398438 789.113281 188.773438 C 791.0625 192.148438 792.5625 196.125 793.386719 199.949219 C 794.136719 203.773438 794.363281 207.976562 793.835938 211.875 C 793.386719 215.773438 792.1875 219.824219 790.460938 223.351562 C 788.8125 226.949219 786.414062 230.398438 783.636719 233.175781 C 780.863281 236.023438 777.488281 238.5 774.039062 240.300781 C 770.511719 242.101562 766.539062 243.375 762.636719 243.976562 C 758.738281 244.5 755.511719 244.199219 750.636719 243.75 C 743.136719 243.148438 732.863281 240.601562 722.136719 239.476562 C 708.1875 238.125 693.636719 237.148438 674.0625 237.074219 C 643.6875 236.851562 599.210938 239.550781 557.511719 241.5 C 509.0625 243.824219 437.4375 249.074219 400.761719 250.199219 C 380.886719 250.800781 364.011719 251.101562 354.863281 250.574219 C 350.886719 250.351562 349.085938 250.199219 346.386719 249.523438 C 343.613281 248.851562 340.835938 247.800781 338.363281 246.523438 C 335.8125 245.175781 333.414062 243.523438 331.3125 241.648438 C 329.210938 239.773438 327.261719 237.523438 325.613281 235.199219 C 324.039062 232.875 322.6875 230.324219 321.636719 227.625 C 320.664062 225 319.914062 222.148438 319.613281 219.300781 C 319.238281 216.523438 319.238281 213.601562 319.613281 210.75 C 319.914062 207.976562 320.664062 205.125 321.636719 202.425781 C 322.6875 199.800781 324.039062 197.25 325.613281 194.851562 C 327.261719 192.523438 329.210938 190.351562 331.3125 188.476562 C 333.414062 186.601562 335.8125 184.949219 338.363281 183.601562 C 340.835938 182.324219 343.613281 181.273438 346.386719 180.601562 C 349.085938 179.925781 354.863281 179.550781 354.863281 179.550781 " clip-rule="nonzero"/></clipPath><clipPath id="1603ac492d"><path d="M 513.089844 208.695312 L 586.636719 208.695312 L 586.636719 705.75 L 513.089844 705.75 Z M 513.089844 208.695312 " clip-rule="nonzero"/></clipPath><clipPath id="589dddf84d"><path d="M 585.261719 248.777344 C 583.3125 353.769531 583.238281 398.042969 583.238281 433.800781 C 583.238281 465.929688 583.3125 491.484375 583.6875 525.214844 C 584.136719 566.875 587.4375 643.195312 586.085938 664.953125 C 585.636719 671.617188 585.414062 673.808594 584.136719 677.941406 C 582.9375 681.988281 580.988281 686.121094 578.664062 689.578125 C 576.335938 693.035156 573.335938 696.15625 570.1875 698.601562 C 566.960938 701.046875 563.289062 702.988281 559.539062 704.167969 C 555.863281 705.265625 551.738281 705.769531 547.914062 705.601562 C 544.085938 705.347656 540.039062 704.335938 536.4375 702.734375 C 532.914062 701.132812 529.386719 698.769531 526.386719 695.902344 C 523.460938 693.121094 520.835938 689.578125 518.8125 685.867188 C 516.863281 682.15625 515.363281 677.941406 514.539062 673.640625 C 513.710938 669.421875 513.488281 664.785156 513.863281 660.484375 C 514.3125 656.183594 515.363281 651.714844 517.011719 647.835938 C 518.664062 643.871094 520.914062 640.074219 523.613281 636.957031 C 526.238281 633.75 529.539062 630.96875 532.914062 628.945312 C 536.289062 626.921875 540.1875 625.488281 544.011719 624.726562 C 547.835938 624.054688 551.886719 624.054688 555.710938 624.726562 C 559.539062 625.488281 563.4375 626.921875 566.8125 628.945312 C 570.261719 630.96875 573.488281 633.75 576.1875 636.957031 C 578.8125 640.074219 581.136719 643.871094 582.710938 647.835938 C 584.363281 651.796875 585.414062 656.183594 585.863281 660.570312 C 586.238281 664.871094 586.011719 669.421875 585.1875 673.640625 C 584.363281 677.941406 582.863281 682.242188 580.914062 685.953125 C 578.886719 689.664062 576.261719 693.121094 573.261719 695.988281 C 570.335938 698.769531 566.8125 701.132812 563.289062 702.734375 C 559.6875 704.335938 555.636719 705.347656 551.8125 705.601562 C 547.988281 705.769531 543.863281 705.265625 540.1875 704.167969 C 536.4375 702.988281 532.761719 701.046875 529.539062 698.601562 C 526.3125 696.15625 523.386719 693.035156 521.0625 689.578125 C 518.738281 686.121094 516.789062 681.988281 515.585938 677.941406 C 514.3125 673.808594 514.085938 671.785156 513.636719 664.953125 C 511.988281 639.402344 516.039062 542.25 516.414062 483.304688 C 516.710938 427.476562 516.488281 363.550781 515.960938 320.289062 C 515.664062 291.617188 513.9375 261.511719 514.460938 248.777344 C 514.6875 244.140625 514.835938 242.367188 515.511719 239.246094 C 516.1875 236.210938 517.164062 233.089844 518.511719 230.308594 C 519.789062 227.527344 521.511719 224.828125 523.386719 222.382812 C 525.261719 220.019531 527.4375 217.828125 529.761719 216.054688 C 532.085938 214.199219 534.636719 212.683594 537.335938 211.585938 C 539.960938 210.492188 542.8125 209.648438 545.585938 209.308594 C 548.4375 208.886719 551.363281 208.886719 554.136719 209.308594 C 556.914062 209.648438 559.761719 210.492188 562.386719 211.585938 C 565.085938 212.683594 567.636719 214.199219 569.960938 216.054688 C 572.289062 217.828125 574.460938 220.019531 576.335938 222.382812 C 578.210938 224.828125 579.9375 227.527344 581.210938 230.308594 C 582.5625 233.089844 583.539062 236.210938 584.210938 239.246094 C 584.886719 242.367188 585.261719 248.777344 585.261719 248.777344 " clip-rule="nonzero"/></clipPath><clipPath id="c4f4d509bc"><path d="M 65.496094 65.546875 L 150 65.546875 L 150 430.5625 L 65.496094 430.5625 Z M 65.496094 65.546875 " clip-rule="nonzero"/></clipPath><clipPath id="11852bc43c"><path d="M 149.886719 104.289062 C 147.039062 166.914062 147.039062 209.4375 146.289062 237.9375 C 145.6875 260.886719 144.488281 277.386719 144.113281 300.113281 C 143.738281 327.5625 145.835938 374.886719 144.488281 391.238281 C 144.039062 397.386719 143.8125 399.863281 142.460938 403.761719 C 141.113281 407.738281 139.011719 411.710938 136.539062 415.011719 C 133.988281 418.3125 130.761719 421.386719 127.3125 423.710938 C 123.863281 426.113281 119.8125 427.914062 115.761719 429.039062 C 111.710938 430.164062 107.289062 430.6875 103.164062 430.460938 C 98.960938 430.238281 94.613281 429.261719 90.789062 427.6875 C 86.886719 426.1875 83.0625 423.863281 79.914062 421.164062 C 76.6875 418.460938 73.835938 415.085938 71.664062 411.488281 C 69.488281 407.886719 67.835938 403.761719 67.011719 399.710938 C 66.113281 395.585938 65.8125 391.164062 66.261719 387.039062 C 66.710938 382.835938 67.914062 378.5625 69.710938 374.8125 C 71.4375 370.988281 73.914062 367.3125 76.835938 364.3125 C 79.6875 361.238281 83.210938 358.539062 86.886719 356.585938 C 90.636719 354.636719 94.835938 353.210938 98.960938 352.539062 C 103.085938 351.863281 107.511719 351.863281 111.636719 352.539062 C 115.761719 353.210938 119.960938 354.636719 123.636719 356.585938 C 127.386719 358.539062 130.914062 361.238281 133.761719 364.3125 C 136.613281 367.3125 139.164062 370.988281 140.886719 374.8125 C 142.613281 378.5625 143.8125 382.914062 144.261719 387.039062 C 144.710938 391.164062 144.488281 395.664062 143.585938 399.710938 C 142.6875 403.761719 141.039062 407.886719 138.863281 411.488281 C 136.761719 415.085938 133.835938 418.460938 130.6875 421.164062 C 127.460938 423.863281 123.636719 426.1875 119.8125 427.6875 C 115.914062 429.261719 111.5625 430.238281 107.363281 430.460938 C 103.238281 430.6875 98.8125 430.164062 94.761719 429.039062 C 90.789062 427.914062 86.738281 426.039062 83.289062 423.710938 C 79.835938 421.386719 76.539062 418.3125 74.0625 415.011719 C 71.511719 411.636719 69.414062 407.738281 68.136719 403.761719 C 66.789062 399.789062 66.488281 397.386719 66.039062 391.238281 C 64.914062 374.511719 66.863281 334.386719 67.988281 297.414062 C 69.636719 243.863281 73.6875 123.710938 76.085938 100.835938 C 76.539062 96.039062 76.6875 94.914062 77.511719 92.0625 C 78.414062 89.289062 79.613281 86.4375 81.113281 83.886719 C 82.539062 81.335938 84.414062 78.9375 86.511719 76.835938 C 88.539062 74.738281 90.9375 72.789062 93.414062 71.210938 C 95.886719 69.636719 98.664062 68.363281 101.511719 67.460938 C 104.289062 66.5625 107.289062 65.960938 110.210938 65.738281 C 113.136719 65.511719 116.210938 65.664062 119.136719 66.113281 C 122.0625 66.636719 124.988281 67.539062 127.6875 68.664062 C 130.386719 69.863281 133.011719 71.363281 135.335938 73.164062 C 137.664062 74.960938 139.914062 77.0625 141.710938 79.386719 C 143.585938 81.710938 145.164062 84.261719 146.4375 86.960938 C 147.710938 89.585938 148.613281 92.511719 149.210938 95.4375 C 149.8125 98.289062 149.886719 104.289062 149.886719 104.289062 " clip-rule="nonzero"/></clipPath><clipPath id="3104a97a05"><path d="M 69.632812 357.78125 L 422.640625 357.78125 L 422.640625 450.941406 L 69.632812 450.941406 Z M 69.632812 357.78125 " clip-rule="nonzero"/></clipPath><clipPath id="c64710d127"><path d="M 100.238281 373.3125 C 155.960938 364.085938 174.335938 361.613281 194.738281 360.1875 C 219.488281 358.460938 254.886719 357.488281 277.085938 358.085938 C 292.238281 358.460938 300.488281 359.136719 315.1875 360.9375 C 335.886719 363.5625 388.835938 375.113281 389.210938 373.835938 C 389.289062 373.539062 384.789062 372.113281 384.863281 371.886719 C 385.011719 371.585938 393.414062 373.011719 397.3125 374.511719 C 401.289062 376.011719 405.113281 378.261719 408.335938 380.886719 C 411.5625 383.585938 414.488281 386.960938 416.738281 390.488281 C 418.914062 394.085938 420.636719 398.210938 421.539062 402.261719 C 422.511719 406.386719 422.8125 410.8125 422.4375 415.011719 C 421.988281 419.210938 420.863281 423.488281 419.136719 427.3125 C 417.414062 431.136719 414.9375 434.886719 412.164062 437.960938 C 409.3125 441.039062 405.789062 443.8125 402.113281 445.761719 C 398.363281 447.789062 394.164062 449.289062 390.039062 449.960938 C 385.914062 450.710938 381.488281 450.789062 377.289062 450.113281 C 373.164062 449.511719 368.886719 448.164062 365.210938 446.210938 C 361.460938 444.335938 357.863281 441.636719 354.9375 438.636719 C 352.011719 435.636719 349.460938 431.960938 347.664062 428.210938 C 345.863281 424.386719 344.664062 420.113281 344.136719 415.988281 C 343.613281 411.789062 343.835938 407.363281 344.664062 403.238281 C 345.488281 399.113281 347.136719 394.988281 349.238281 391.3125 C 351.335938 387.710938 354.1875 384.261719 357.414062 381.5625 C 360.5625 378.789062 364.3125 376.460938 368.210938 374.8125 C 372.113281 373.238281 376.460938 372.1875 380.585938 371.960938 C 384.789062 371.664062 389.210938 372.113281 393.261719 373.164062 C 397.3125 374.210938 401.4375 376.085938 404.886719 378.414062 C 408.414062 380.664062 411.710938 383.738281 414.261719 387.039062 C 416.886719 390.335938 418.988281 394.238281 420.414062 398.210938 C 421.761719 402.1875 422.511719 406.539062 422.585938 410.738281 C 422.664062 414.9375 421.988281 419.363281 420.636719 423.335938 C 419.363281 427.3125 417.335938 431.289062 414.863281 434.664062 C 412.3125 438.039062 409.164062 441.1875 405.710938 443.511719 C 402.261719 445.914062 398.210938 447.863281 394.238281 449.0625 C 390.1875 450.1875 387.414062 450.710938 381.5625 450.5625 C 368.289062 450.113281 335.738281 441.414062 316.761719 438.5625 C 301.988281 436.3125 292.6875 434.664062 277.3125 433.761719 C 255.863281 432.488281 222.710938 432.863281 200.0625 434.0625 C 182.210938 434.960938 167.289062 436.613281 152.210938 438.710938 C 138.5625 440.664062 121.835938 445.011719 113.4375 446.0625 C 109.460938 446.585938 107.511719 446.8125 104.511719 446.585938 C 101.585938 446.4375 98.585938 445.835938 95.738281 445.011719 C 92.960938 444.113281 90.1875 442.835938 87.636719 441.335938 C 85.085938 439.761719 82.6875 437.886719 80.664062 435.789062 C 78.5625 433.6875 76.6875 431.289062 75.113281 428.8125 C 73.613281 426.261719 72.335938 423.488281 71.511719 420.636719 C 70.613281 417.789062 70.085938 414.789062 69.9375 411.863281 C 69.710938 408.9375 69.9375 405.863281 70.460938 402.9375 C 70.988281 400.085938 71.886719 397.164062 73.085938 394.460938 C 74.363281 391.761719 75.9375 389.136719 77.738281 386.8125 C 79.539062 384.488281 81.710938 382.386719 84.039062 380.511719 C 86.363281 378.710938 88.988281 377.136719 91.6875 375.9375 C 94.386719 374.738281 100.238281 373.3125 100.238281 373.3125 " clip-rule="nonzero"/></clipPath><clipPath id="ad55f3239b"><path d="M 319.265625 388.035156 L 410.9375 388.035156 L 410.9375 706.234375 L 319.265625 706.234375 Z M 319.265625 388.035156 " clip-rule="nonzero"/></clipPath><clipPath id="6afc8ebf0e"><path d="M 410.585938 423.035156 C 408.039062 527.097656 406.835938 543.242188 405.261719 564.722656 C 403.386719 590.757812 400.539062 630.019531 397.988281 650.933594 C 396.5625 662.882812 395.664062 671.988281 393.488281 679.03125 C 392.210938 683.511719 390.9375 686.425781 388.761719 689.628906 C 386.664062 692.828125 383.8125 695.816406 380.664062 698.234375 C 377.585938 700.582031 373.914062 702.574219 370.164062 703.925781 C 366.414062 705.203125 362.210938 705.988281 358.238281 706.128906 C 354.261719 706.273438 350.0625 705.703125 346.238281 704.636719 C 342.414062 703.496094 338.585938 701.71875 335.363281 699.515625 C 332.136719 697.308594 329.0625 694.464844 326.738281 691.40625 C 324.414062 688.347656 322.539062 684.71875 321.335938 681.164062 C 320.136719 677.535156 319.539062 673.550781 319.613281 669.710938 C 319.761719 665.941406 320.511719 662.03125 321.863281 658.472656 C 323.289062 654.917969 325.3125 651.359375 327.789062 648.445312 C 330.335938 645.457031 333.488281 642.753906 336.789062 640.691406 C 340.164062 638.628906 344.0625 637.0625 347.960938 636.136719 C 351.789062 635.214844 356.0625 634.859375 360.039062 635.140625 C 364.011719 635.425781 368.136719 636.421875 371.8125 637.917969 C 375.488281 639.339844 379.085938 641.542969 382.085938 644.035156 C 385.011719 646.59375 387.710938 649.722656 389.664062 652.996094 C 391.6875 656.269531 393.113281 660.039062 393.9375 663.808594 C 394.6875 667.507812 394.761719 671.488281 394.238281 675.257812 C 393.710938 679.03125 392.511719 682.871094 390.710938 686.285156 C 388.988281 689.699219 386.511719 692.972656 383.738281 695.671875 C 380.886719 698.304688 377.4375 700.722656 373.914062 702.359375 C 370.3125 704.066406 366.261719 705.277344 362.289062 705.773438 C 358.3125 706.34375 354.113281 706.199219 350.136719 705.488281 C 346.238281 704.847656 342.261719 703.425781 338.738281 701.578125 C 335.289062 699.726562 331.988281 697.238281 329.289062 694.394531 C 326.585938 691.621094 324.335938 688.207031 322.761719 684.71875 C 321.113281 681.234375 320.136719 677.324219 319.761719 673.550781 C 319.460938 669.78125 320.136719 666.226562 320.738281 662.101562 C 321.414062 657.265625 322.835938 653.707031 323.960938 646.238281 C 326.664062 629.097656 330.789062 586.207031 333.113281 560.597656 C 334.988281 539.828125 336.488281 520.554688 337.3125 504.121094 C 337.988281 491.320312 338.136719 482.214844 338.210938 469.910156 C 338.289062 455.539062 336.9375 432.28125 337.460938 423.035156 C 337.6875 419.121094 337.835938 417.414062 338.511719 414.710938 C 339.1875 412.007812 340.3125 409.378906 341.664062 406.886719 C 343.011719 404.46875 344.738281 402.121094 346.6875 400.058594 C 348.5625 397.996094 350.8125 396.078125 353.210938 394.511719 C 355.613281 392.945312 358.3125 391.59375 361.011719 390.597656 C 363.789062 389.601562 366.710938 388.964844 369.636719 388.609375 C 372.488281 388.253906 375.488281 388.253906 378.414062 388.609375 C 381.335938 388.964844 384.261719 389.601562 386.960938 390.597656 C 389.664062 391.59375 392.363281 392.945312 394.761719 394.511719 C 397.164062 396.078125 399.414062 397.996094 401.363281 400.058594 C 403.3125 402.121094 405.039062 404.46875 406.386719 406.886719 C 407.738281 409.378906 408.789062 412.007812 409.460938 414.710938 C 410.210938 417.414062 410.585938 423.035156 410.585938 423.035156 " clip-rule="nonzero"/></clipPath><clipPath id="50eff39f35"><path d="M 59.46875 381 L 138.871094 381 L 138.871094 691 L 59.46875 691 Z M 59.46875 381 " clip-rule="nonzero"/></clipPath><clipPath id="61c534bec2"><path d="M 138.039062 414.175781 C 132.789062 466.839844 131.289062 486.636719 130.460938 502.460938 C 129.789062 515.980469 129.5625 526.808594 129.414062 540.199219 C 129.261719 555.382812 128.363281 571.210938 129.5625 588.828125 C 130.988281 609.972656 138.863281 645.53125 138.789062 658.34375 C 138.789062 663.148438 138.488281 665.199219 137.363281 668.339844 C 136.3125 671.542969 134.511719 674.746094 132.261719 677.5 C 130.085938 680.257812 127.164062 682.820312 124.011719 684.804688 C 120.863281 686.726562 117.1875 688.394531 113.511719 689.417969 C 109.761719 690.441406 105.636719 690.957031 101.738281 690.890625 C 97.835938 690.890625 93.789062 690.25 90.113281 689.160156 C 86.4375 688.074219 82.761719 686.34375 79.6875 684.292969 C 76.613281 682.242188 73.761719 679.617188 71.664062 676.859375 C 69.488281 674.105469 67.761719 670.835938 66.789062 667.632812 C 65.8125 664.429688 65.363281 660.84375 65.664062 657.511719 C 65.886719 654.242188 66.863281 650.785156 68.363281 647.707031 C 69.863281 644.570312 72.039062 641.558594 74.585938 639.058594 C 77.136719 636.558594 80.363281 634.316406 83.738281 632.589844 C 87.113281 630.921875 90.9375 629.640625 94.761719 629 C 98.585938 628.296875 102.789062 628.167969 106.613281 628.550781 C 110.511719 628.9375 114.488281 629.960938 118.011719 631.371094 C 121.539062 632.84375 124.914062 634.832031 127.761719 637.199219 C 130.539062 639.507812 133.011719 642.328125 134.8125 645.339844 C 136.613281 648.285156 137.886719 651.679688 138.414062 654.949219 C 139.011719 658.214844 138.9375 661.804688 138.261719 665.070312 C 137.585938 668.339844 136.238281 671.734375 134.363281 674.617188 C 132.488281 677.566406 129.9375 680.382812 127.085938 682.625 C 124.238281 684.867188 120.710938 686.855469 117.1875 688.199219 C 113.585938 689.546875 109.613281 690.441406 105.710938 690.761719 C 101.8125 691.082031 97.6875 690.890625 93.863281 690.121094 C 90.113281 689.355469 86.210938 688.007812 82.914062 686.214844 C 79.613281 684.484375 76.460938 682.179688 73.988281 679.617188 C 71.511719 676.988281 69.414062 673.976562 67.988281 670.835938 C 66.636719 667.761719 66.414062 665.777344 65.585938 660.90625 C 63.488281 647.902344 60.5625 616.632812 59.8125 588.378906 C 58.6875 548.914062 61.386719 478.179688 63.1875 446.210938 C 64.085938 429.871094 65.136719 416.738281 66.414062 409.175781 C 66.9375 405.84375 67.238281 404.308594 68.136719 401.9375 C 69.039062 399.628906 70.3125 397.324219 71.886719 395.273438 C 73.386719 393.222656 75.261719 391.238281 77.363281 389.570312 C 79.386719 387.839844 81.789062 386.304688 84.261719 385.085938 C 86.738281 383.871094 89.511719 382.910156 92.289062 382.203125 C 94.988281 381.5625 97.914062 381.113281 100.835938 381.050781 C 103.6875 380.921875 106.613281 381.113281 109.460938 381.625 C 112.238281 382.140625 115.085938 382.910156 117.636719 383.996094 C 120.261719 385.023438 122.738281 386.367188 124.988281 387.96875 C 127.164062 389.507812 129.261719 391.300781 130.988281 393.289062 C 132.710938 395.273438 134.136719 397.453125 135.261719 399.695312 C 136.386719 401.9375 137.210938 404.371094 137.664062 406.804688 C 138.113281 409.242188 138.039062 414.175781 138.039062 414.175781 " clip-rule="nonzero"/></clipPath></defs><g clip-path="url(#a1f5825dcd)"><g clip-path="url(#6d420fb621)"><path fill="#e7191f" d="M 316.613281 163.425781 L 796.988281 163.425781 L 796.988281 253.648438 L 316.613281 253.648438 Z M 316.613281 163.425781 " fill-opacity="1" fill-rule="nonzero"/></g></g><g clip-path="url(#1603ac492d)"><g clip-path="url(#589dddf84d)"><path fill="#e7191f" d="M 510.636719 205.9375 L 589.085938 205.9375 L 589.085938 709.121094 L 510.636719 709.121094 Z M 510.636719 205.9375 " fill-opacity="1" fill-rule="nonzero"/></g></g><g clip-path="url(#c4f4d509bc)"><g clip-path="url(#11852bc43c)"><path fill="#e7191f" d="M 63.039062 62.738281 L 152.886719 62.738281 L 152.886719 433.367188 L 63.039062 433.367188 Z M 63.039062 62.738281 " fill-opacity="1" fill-rule="nonzero"/></g></g><g clip-path="url(#3104a97a05)"><g clip-path="url(#c64710d127)"><path fill="#e7191f" d="M 66.9375 355.085938 L 425.722656 355.085938 L 425.722656 453.636719 L 66.9375 453.636719 Z M 66.9375 355.085938 " fill-opacity="1" fill-rule="nonzero"/></g></g><g clip-path="url(#ad55f3239b)"><g clip-path="url(#6afc8ebf0e)"><path fill="#e7191f" d="M 316.613281 385.761719 L 413.585938 385.761719 L 413.585938 708.886719 L 316.613281 708.886719 Z M 316.613281 385.761719 " fill-opacity="1" fill-rule="nonzero"/></g></g><g clip-path="url(#50eff39f35)"><g clip-path="url(#61c534bec2)"><path fill="#e7191f" d="M 56.8125 378.488281 L 141.863281 378.488281 L 141.863281 693.4375 L 56.8125 693.4375 Z M 56.8125 378.488281 " fill-opacity="1" fill-rule="nonzero"/></g></g></svg>